# Blender 4.3.2
# www.blender.org
mtllib poyas8.mtl
o beltgear5.001
v 7.193983 1.543522 2.310394
v 7.101868 1.542374 2.265135
v 7.081380 1.678272 2.319985
v 7.852771 1.558334 2.639804
v 7.907744 1.696163 2.733622
v 7.944216 1.559422 2.685789
v 7.975833 -0.787933 2.492709
v 7.317776 -0.801483 2.164171
v 6.192685 1.363392 4.286723
v 6.090272 1.502644 4.255510
v 6.682691 1.472610 4.963048
v 6.126265 1.366776 4.207498
v 6.665483 1.339935 4.850931
v 6.731279 1.336502 4.929481
v 6.758399 -1.005066 4.672918
v 6.286805 -0.981419 4.109166
v 5.419013 0.891823 5.394629
v 5.384724 -1.144581 4.987713
v 5.514631 -1.160263 5.227439
v 5.290342 0.919830 5.155244
v 5.615335 -1.087830 4.665907
v 5.528478 1.061348 4.828979
v 7.327811 -0.950283 3.572400
v 6.947179 1.090572 3.646163
v 7.063339 -0.962116 3.501235
v 7.210871 1.115192 3.715541
v 7.587962 -0.894424 3.273929
v 7.474619 1.255615 3.409347
v 6.585523 0.978237 3.810212
v 7.031270 0.987286 4.033349
v 6.773718 0.954884 3.991274
v 7.279360 1.060535 3.936639
v 6.511880 1.044285 3.552770
v 7.501795 1.206074 3.585222
v 6.653866 1.188393 3.161574
v 5.954564 0.983486 5.563963
v 5.916455 1.167583 5.590890
v 5.553091 1.034397 5.832774
v 5.605207 0.840393 5.791133
v 5.337572 0.776737 5.778178
v 5.289057 0.980335 5.821181
v 5.117090 0.756405 5.637164
v 5.071887 0.963680 5.682549
v 4.975213 0.995850 5.446097
v 5.017752 0.792282 5.396306
v 5.013324 1.062191 5.187261
v 5.055564 0.867840 5.132971
v 5.345922 1.014275 4.837207
v 5.320479 1.197144 4.878387
v 5.729132 -1.161732 5.398707
v 5.632893 0.903442 5.563807
v 6.087366 -1.111458 5.230639
v 6.001997 1.037949 5.393857
v 7.469882 1.389450 3.620733
v 7.238104 1.254871 3.990393
v 6.994413 1.191006 4.087832
v 6.741547 1.161873 4.046484
v 6.557147 1.181515 3.867790
v 6.485849 1.238808 3.614272
v 6.638567 1.372166 3.204880
v 6.849158 -0.959919 3.332055
v 6.733647 1.104671 3.476744
v 6.929273 -0.909134 2.944715
v 6.815107 1.240849 3.079369
vn 0.4984 0.2806 -0.8202
vn 0.4900 0.3817 -0.7837
vn 0.4915 0.3828 -0.7823
vn 0.5000 0.2826 -0.8186
vn 0.4943 0.3846 -0.7796
vn 0.4970 0.3825 -0.7789
vn 0.5001 0.2826 -0.8186
vn 0.4939 0.0674 -0.8669
vn 0.4938 0.0674 -0.8670
vn 0.8002 0.2229 -0.5568
vn 0.7862 0.3254 -0.5253
vn 0.7856 0.3285 -0.5243
vn 0.7861 0.3252 -0.5256
vn 0.7999 0.2254 -0.5563
vn 0.7858 0.3286 -0.5240
vn 0.8002 0.0098 -0.5996
vn 0.8003 0.0098 -0.5995
vn -0.9061 0.0162 0.4227
vn -0.9906 0.0963 -0.0973
vn -0.9033 0.0142 0.4287
vn -0.9799 0.1067 -0.1688
vn -0.6924 0.1573 -0.7042
vn -0.6727 0.1587 -0.7227
vn -0.5927 0.1606 -0.7893
vn -0.5926 0.1606 -0.7894
vn 0.2265 -0.1414 0.9637
vn -0.3030 -0.0998 0.9477
vn -0.3112 -0.1001 0.9451
vn 0.2977 -0.1427 0.9439
vn 0.7942 -0.1348 0.5925
vn 0.8102 -0.1328 0.5709
vn 0.8661 -0.1264 0.4836
vn 0.8660 -0.1266 0.4837
vn 0.8102 -0.1329 0.5708
vn 0.0526 -0.9390 -0.3398
vn 0.0530 -0.9384 -0.3415
vn 0.0551 -0.9370 -0.3450
vn 0.0518 -0.9396 -0.3383
vn 0.0516 -0.9396 -0.3383
vn 0.0516 -0.9394 -0.3388
vn 0.0519 -0.9393 -0.3392
vn 0.0520 -0.9390 -0.3400
vn 0.0517 -0.9390 -0.3399
vn 0.5840 -0.0988 0.8057
vn 0.5456 -0.1224 0.8290
vn 0.5836 -0.0972 0.8062
vn 0.5500 -0.1191 0.8267
vn 0.2173 -0.2136 0.9524
vn 0.2271 -0.2152 0.9498
vn -0.3344 -0.2725 0.9022
vn -0.3393 -0.2711 0.9008
vn -0.7997 -0.2254 0.5565
vn -0.8011 -0.2241 0.5551
vn -0.9953 -0.0936 0.0267
vn -0.9954 -0.0931 0.0236
vn -0.8675 0.0811 -0.4908
vn -0.8624 0.0816 -0.4996
vn -0.6356 0.1974 -0.7464
vn -0.6312 0.2002 -0.7494
vn -0.5945 0.2209 -0.7732
vn -0.5948 0.2223 -0.7725
vn -0.1828 -0.1221 0.9755
vn -0.6596 -0.0504 0.7499
vn -0.6659 -0.0502 0.7444
vn -0.1828 -0.1222 0.9755
vn -0.1108 -0.1285 0.9855
vn 0.4847 -0.1613 0.8597
vn 0.5069 -0.1613 0.8468
vn 0.5936 -0.1611 0.7885
vn 0.5936 -0.1612 0.7885
vn 0.5935 -0.1611 0.7885
vn 0.5070 -0.1613 0.8467
vn 0.8615 -0.0728 0.5025
vn 0.8357 -0.0934 0.5412
vn 0.8614 -0.0719 0.5029
vn 0.8384 -0.0909 0.5374
vn 0.5905 -0.2012 0.7815
vn 0.5980 -0.1997 0.7762
vn 0.0669 -0.3000 0.9516
vn 0.0629 -0.3003 0.9518
vn -0.5006 -0.2821 0.8184
vn -0.5012 -0.2812 0.8184
vn -0.8953 -0.1595 0.4160
vn -0.8965 -0.1591 0.4135
vn -0.9941 0.0268 -0.1048
vn -0.9931 0.0274 -0.1137
vn -0.8901 0.1590 -0.4272
vn -0.8873 0.1623 -0.4317
vn -0.8644 0.1833 -0.4683
vn -0.8644 0.1844 -0.4677
vn -0.6659 -0.0472 0.7445
vn -0.9523 0.0306 0.3036
vn -0.6618 -0.0487 0.7481
vn -0.9710 0.0421 0.2354
vn -0.9232 0.1155 -0.3666
vn -0.9125 0.1184 -0.3916
vn -0.8656 0.1261 -0.4845
vn -0.8655 0.1263 -0.4848
vn -0.0880 0.9610 0.2623
vn -0.0910 0.9604 0.2633
vn -0.0928 0.9599 0.2645
vn -0.0888 0.9609 0.2623
vn -0.0884 0.9607 0.2630
vn -0.0886 0.9609 0.2625
vn -0.0886 0.9611 0.2617
vn -0.0883 0.9610 0.2621
vn -0.0877 0.9610 0.2622
vn -0.0334 0.9508 0.3080
vn -0.0328 0.9510 0.3074
vn -0.0338 0.9508 0.3080
vn -0.0328 0.9510 0.3075
vn -0.0329 0.9511 0.3071
vn -0.0333 0.9508 0.3079
vn -0.0346 0.9503 0.3095
vn -0.0340 0.9510 0.3072
vn -0.0378 0.9489 0.3133
vn 0.1216 -0.9511 -0.2840
vn 0.1210 -0.9512 -0.2838
vn 0.1239 -0.9503 -0.2855
vn 0.1196 -0.9515 -0.2834
vn 0.1190 -0.9519 -0.2825
vn 0.1190 -0.9517 -0.2832
vn 0.1193 -0.9514 -0.2839
vn 0.1196 -0.9514 -0.2838
vn 0.1197 -0.9514 -0.2838
vt 0.756300 0.573000
vt 0.767600 0.573000
vt 0.766600 0.607900
vt 0.673800 0.573000
vt 0.663100 0.607900
vt 0.662100 0.573000
vt 0.673800 0.017100
vt 0.756300 0.017100
vt 0.776900 0.493200
vt 0.808600 0.022000
vt 0.776900 0.022000
vt 0.808600 0.497100
vt 0.855500 0.022000
vt 0.855500 0.522000
vt 0.957000 0.022000
vt 0.957000 0.576400
vt 0.968800 0.629100
vt 0.915500 0.629100
vt 0.941900 0.612100
vt 0.897000 0.672100
vt 0.987800 0.672100
vt 0.893600 0.761700
vt 0.993700 0.761700
vt 0.993700 0.979500
vt 0.893600 0.979500
vt 0.489500 0.845200
vt 0.366500 0.793900
vt 0.491700 0.809900
vt 0.367200 0.839200
vt 0.313200 0.837200
vt 0.314500 0.788100
vt 0.282000 0.785900
vt 0.281300 0.836900
vt 0.251000 0.785200
vt 0.251000 0.836900
vt 0.220600 0.837000
vt 0.220000 0.786000
vt 0.188600 0.837300
vt 0.187400 0.788200
vt 0.135500 0.793900
vt 0.134800 0.839200
vt 0.012500 0.845000
vt 0.010200 0.809800
vt 0.678200 0.703600
vt 0.678200 0.818100
vt 0.668500 0.760900
vt 0.701700 0.859400
vt 0.701700 0.662400
vt 0.754400 0.652100
vt 0.754400 0.869600
vt 0.875000 0.868200
vt 0.875000 0.651900
s 1
usemtl pistol_mag_col
f 1/1/1 2/2/2 3/3/3
f 4/4/4 5/5/5 6/6/6
f 4/4/7 3/3/3 5/5/5
f 4/4/7 1/1/1 3/3/3
f 7/7/8 1/1/1 4/4/7
f 7/7/8 8/8/9 1/1/1
f 9/1/10 10/3/11 11/5/12
f 9/1/10 12/2/13 10/3/11
f 13/4/14 11/5/12 14/6/15
f 13/4/14 9/1/10 11/5/12
f 15/7/16 9/1/10 13/4/14
f 15/7/16 16/8/17 9/1/10
f 17/9/18 18/10/19 19/11/20
f 20/12/21 18/10/19 17/9/18
f 20/12/21 21/13/22 18/10/19
f 22/14/23 21/13/22 20/12/21
f 22/14/23 16/15/24 21/13/22
f 22/14/23 9/16/25 16/15/24
f 23/10/26 24/9/27 25/11/28
f 23/10/26 26/12/29 24/9/27
f 27/13/30 26/12/29 23/10/26
f 27/13/30 28/14/31 26/12/29
f 7/15/32 28/14/31 27/13/30
f 7/15/32 4/16/33 28/14/34
f 29/17/35 30/18/36 31/19/37
f 29/17/35 32/20/38 30/18/36
f 33/21/39 32/20/38 29/17/35
f 33/21/39 34/22/40 32/20/38
f 35/23/41 34/22/40 33/21/39
f 2/24/42 34/22/40 35/23/41
f 6/25/43 34/22/40 2/24/42
f 11/26/44 36/27/45 14/28/46
f 37/29/47 36/27/45 11/26/44
f 38/30/48 36/27/45 37/29/47
f 38/30/48 39/31/49 36/27/45
f 38/30/48 40/32/50 39/31/49
f 41/33/51 40/32/50 38/30/48
f 41/33/51 42/34/52 40/32/50
f 43/35/53 42/34/52 41/33/51
f 44/36/54 42/34/52 43/35/53
f 44/36/54 45/37/55 42/34/52
f 46/38/56 45/37/55 44/36/54
f 46/38/56 47/39/57 45/37/55
f 46/38/56 48/40/58 47/39/57
f 49/41/59 48/40/58 46/38/56
f 10/42/60 48/40/58 49/41/59
f 12/43/61 48/40/58 10/42/60
f 50/10/62 17/9/63 19/11/64
f 50/10/65 51/12/66 17/9/63
f 52/13/67 51/12/66 50/10/65
f 52/13/67 53/14/68 51/12/66
f 15/15/69 53/14/68 52/13/67
f 15/15/70 13/16/71 53/14/72
f 5/26/73 34/27/74 6/28/75
f 54/29/76 34/27/74 5/26/73
f 55/30/77 34/27/74 54/29/76
f 55/30/77 32/31/78 34/27/74
f 55/30/77 30/32/79 32/31/78
f 56/33/80 30/32/79 55/30/77
f 56/33/80 31/34/81 30/32/79
f 57/35/82 31/34/81 56/33/80
f 58/36/83 31/34/81 57/35/82
f 58/36/83 29/37/84 31/34/81
f 59/38/85 29/37/84 58/36/83
f 59/38/85 33/39/86 29/37/84
f 59/38/85 35/40/87 33/39/86
f 60/41/88 35/40/87 59/38/85
f 3/42/89 35/40/87 60/41/88
f 2/43/90 35/40/87 3/42/89
f 24/9/91 61/10/92 25/11/93
f 62/12/94 61/10/92 24/9/91
f 62/12/94 63/13/95 61/10/92
f 64/14/96 63/13/95 62/12/94
f 64/14/96 8/15/97 63/13/95
f 64/14/96 1/16/98 8/15/97
f 41/44/99 44/45/100 43/46/101
f 41/44/99 46/47/102 44/45/100
f 38/48/103 46/47/102 41/44/99
f 37/49/104 46/47/102 38/48/103
f 37/49/104 49/50/105 46/47/102
f 37/49/104 10/51/106 49/50/105
f 11/52/107 10/51/106 37/49/104
f 3/51/108 54/49/109 5/52/110
f 60/50/111 54/49/109 3/51/108
f 60/50/111 55/48/112 54/49/109
f 59/47/113 55/48/112 60/50/111
f 58/45/114 55/48/112 59/47/113
f 58/45/114 56/44/115 55/48/112
f 57/46/116 56/44/115 58/45/114
f 45/17/117 40/18/118 42/19/119
f 47/21/120 40/18/118 45/17/117
f 47/21/120 39/20/121 40/18/118
f 47/21/120 36/22/122 39/20/121
f 48/23/123 36/22/122 47/21/120
f 12/24/124 36/22/122 48/23/123
f 14/25/125 36/22/122 12/24/124
o beltgear1.002
v 6.946686 3.232182 0.668999
v 6.875268 3.648869 -1.413755
v 7.939879 3.389359 0.678423
v 7.916950 3.811825 -1.404009
v 6.961671 3.695000 -1.349876
v 7.161122 3.752098 -1.467890
v 7.162000 3.730072 -1.565083
v 7.613699 3.823528 -1.463149
v 7.621576 3.802677 -1.560552
v 7.819524 3.830708 -1.342636
v 7.849438 3.447735 0.585132
v 7.708775 3.302170 1.171067
v 7.814015 3.271317 1.171494
v 7.724303 3.250740 1.237854
v 7.184930 3.165455 1.233195
v 7.184665 3.219234 1.166301
v 7.093307 3.157375 1.165186
v 7.015632 3.315926 0.577752
v 7.950888 3.164024 0.727975
v 7.871436 3.541668 -1.409102
v 7.899741 3.589046 -1.473238
v 7.925079 3.115005 0.713948
v 7.844002 3.041809 1.019754
v 7.866704 3.087555 1.075118
v 8.468539 0.002365 -1.760921
v 8.248250 -0.034195 -1.784378
v 8.218465 1.581928 -1.666573
v 7.861135 2.408211 -1.590290
v 7.680868 3.536869 -1.418587
v 7.782537 3.051414 1.135564
v 7.101502 2.966602 1.068102
v 7.163518 2.922653 1.052201
v 7.192702 2.958103 1.130785
v 7.971864 3.340260 0.527930
v 7.911325 3.691746 -1.431971
v 7.162357 2.071663 0.522957
v 7.354893 1.717121 0.865726
v 7.491208 -0.069103 0.340517
v 7.637395 -0.060505 0.695508
v 7.278755 1.434353 -1.674231
v 7.045131 2.975853 0.706350
v 7.529300 -0.146145 -1.769731
v 7.001261 3.405178 -1.416937
v 7.645239 3.536304 -1.568448
v 7.641751 3.565388 -1.604447
v 7.216544 3.498253 -1.608670
v 7.220996 3.469246 -1.572425
v 6.961125 3.440575 -1.480851
v 7.183972 3.458336 -1.423069
v 8.295476 0.043270 0.707531
v 8.072584 1.443726 0.821303
v 7.810852 3.024311 1.068575
v 7.399594 2.341602 -1.743888
v 7.364021 2.325817 -1.595462
v 7.632461 0.878323 -1.879526
v 7.750505 -0.112858 -1.788917
v 7.786864 -0.102619 -1.924661
v 8.212044 -0.034992 -1.930814
v 7.824025 2.415321 -1.742495
v 8.095852 2.213295 0.530346
v 8.444027 0.080654 0.348452
v 7.004788 3.014000 0.719925
v 6.933684 3.176979 0.518395
v 6.919036 3.533085 -1.441581
vn -0.3741 0.9245 0.0727
vn -0.4749 0.8800 -0.0004
vn -0.5870 0.7679 0.2562
vn -0.2291 0.9725 -0.0419
vn -0.2450 0.9451 -0.2163
vn -0.0773 0.9962 -0.0410
vn -0.0511 0.9761 -0.2112
vn 0.0766 0.9948 0.0672
vn 0.1901 0.9818 -0.0004
vn 0.3122 0.9126 0.2641
vn 0.1312 0.9686 0.2113
vn 0.0292 0.9048 0.4249
vn 0.2592 0.8893 0.3767
vn 0.0288 0.7954 0.6054
vn -0.2815 0.7472 0.6020
vn -0.3133 0.8512 0.4210
vn -0.5243 0.7677 0.3684
vn -0.4296 0.8791 0.2063
vn 0.8829 -0.4696 0.0014
vn 0.7670 -0.6108 -0.1965
vn 0.4676 -0.7902 -0.3961
vn 0.9820 -0.1722 0.0772
vn 0.8959 -0.3181 0.3101
vn 0.7440 -0.4843 0.4603
vn 0.0810 0.0739 -0.9940
vn -0.0258 0.0783 -0.9966
vn 0.0957 0.0750 -0.9926
vn 0.1283 0.1492 -0.9805
vn 0.0566 0.1569 -0.9860
vn 0.0451 0.1573 -0.9865
vn 0.3660 -0.5981 0.7130
vn 0.3129 -0.3597 0.8791
vn -0.1995 -0.4401 0.8755
vn 0.6181 -0.2124 0.7569
vn -0.1670 -0.6994 0.6949
vn -0.5632 -0.7083 0.4256
vn -0.3356 -0.8848 0.3233
vn -0.5294 -0.3938 0.7514
vn 0.6689 -0.5659 0.4819
vn 0.9696 0.1486 0.1943
vn 0.9947 0.0980 0.0321
vn 0.8663 0.0813 -0.4929
vn 0.8564 0.0805 -0.5099
vn 0.9789 0.0582 0.1960
vn 0.9561 0.1257 0.2647
vn 0.9555 0.1356 0.2621
vn 0.9946 -0.0955 -0.0415
vn -0.9740 -0.1667 0.1536
vn -0.9137 -0.1692 0.3694
vn -0.5639 -0.1950 0.8025
vn -0.9701 -0.1653 0.1779
vn -0.9890 -0.1476 -0.0112
vn -0.5318 -0.8212 -0.2069
vn -0.8765 -0.4759 0.0722
vn -0.5837 -0.2080 0.7849
vn -0.9877 -0.1558 -0.0121
vn 0.2345 -0.8170 -0.5268
vn 0.0253 -0.9997 -0.0022
vn 0.2365 -0.7440 -0.6249
vn 0.0173 -0.7796 -0.6261
vn 0.0357 -0.8483 -0.5283
vn -0.1895 -0.8978 -0.3976
vn 0.2793 -0.9602 -0.0009
vn 0.0143 -0.1108 0.9937
vn 0.0037 -0.0844 0.9964
vn -0.0050 -0.0814 0.9967
vn 0.0022 -0.1521 0.9884
vn -0.8384 -0.1870 -0.5119
vn -0.2671 0.1143 -0.9569
vn -0.8304 -0.1856 -0.5253
vn 0.4105 0.2997 -0.8612
vn 0.2100 0.2055 -0.9559
vn 0.2360 0.1939 -0.9522
vn -0.2461 0.1329 -0.9601
vn -0.4699 0.1551 -0.8690
vn -0.9613 -0.1159 -0.2498
vn -0.9612 -0.1207 -0.2481
vn -0.9630 -0.1165 -0.2432
vn -0.9613 -0.1253 -0.2455
vn -0.9556 -0.1319 -0.2635
vn -0.9664 -0.1401 -0.2153
vn -0.9541 -0.1379 -0.2660
vn 0.9574 0.1701 -0.2332
vn 0.9575 0.1780 -0.2271
vn 0.9564 0.1698 -0.2376
vn 0.9569 0.1801 -0.2277
vn 0.9540 0.1883 -0.2333
vn 0.9539 0.1884 -0.2336
vn 0.9746 0.1411 0.1742
vn 0.9867 0.1625 0.0064
vn 0.9713 0.1403 0.1920
vn 0.9877 0.1560 0.0057
vn 0.9196 0.1133 0.3762
vn 0.9170 0.1146 0.3821
vn -0.9530 -0.2450 0.1783
vn -0.9559 -0.1648 0.2431
vn -0.9533 -0.1753 0.2460
vn -0.9716 -0.1571 0.1772
vn -0.9774 -0.2110 0.0147
vn -0.9177 -0.3929 -0.0580
vn -0.6811 -0.7321 -0.0095
vn -0.0115 0.1178 -0.9930
vn -0.0121 0.1533 -0.9881
vn -0.0146 0.1511 -0.9884
vn -0.0176 0.1201 -0.9926
vn 0.0300 0.0781 -0.9965
vn -0.0072 0.0503 -0.9987
vn -0.0212 0.0426 -0.9989
vn -0.0735 0.1387 -0.9876
vn -0.1523 0.1037 -0.9829
vn -0.0818 0.1369 -0.9872
vn 0.0138 0.0844 -0.9963
vn -0.0790 0.0454 -0.9958
vn -0.0644 -0.0073 -0.9979
vt 0.535200 0.528100
vt 0.551941 0.518801
vt 0.548271 0.880001
vt 0.500500 0.507600
vt 0.502000 0.490700
vt 0.422900 0.507300
vt 0.421400 0.490700
vt 0.387900 0.528100
vt 0.371334 0.519033
vt 0.373464 0.880122
vt 0.389200 0.862100
vt 0.416000 0.963400
vt 0.397700 0.966300
vt 0.413600 0.977800
vt 0.508300 0.977700
vt 0.505900 0.963500
vt 0.523900 0.966200
vt 0.532700 0.862100
vt -0.595043 0.400516
vt -0.580600 0.034700
vt -0.587900 0.021500
vt -0.584500 0.404300
vt -0.585900 0.459500
vt -0.597200 0.465800
vt 0.863800 0.507592
vt 0.835000 0.721400
vt 0.834500 0.507800
vt 0.864998 0.837811
vt 0.840301 0.988563
vt 0.865200 0.991500
vt 0.481200 0.229000
vt 0.442100 0.225100
vt 0.445300 0.130900
vt 0.446300 0.244600
vt 0.483400 0.247600
vt 0.485100 0.129900
vt 0.488500 0.111300
vt 0.498986 0.121704
vt 0.451400 0.112300
vt 0.493400 0.231900
vt 0.496300 0.245600
vt -0.631712 0.388791
vt -0.618200 0.364300
vt -0.628831 0.024951
vt -0.606003 0.025795
vt -0.632300 0.476600
vt 0.294779 0.834463
vt 0.341600 0.544190
vt 0.347082 0.790934
vt 0.289800 0.542700
vt 0.009700 0.727500
vt 0.020905 0.989053
vt 0.299300 0.958800
vt 0.346180 0.960700
vt 0.010400 0.518600
vt 0.473900 0.408200
vt 0.462900 0.454600
vt 0.452900 0.423800
vt 0.478000 0.455600
vt 0.481400 0.406700
vt 0.484900 0.334500
vt 0.477100 0.333000
vt 0.484600 0.286100
vt 0.469500 0.285600
vt 0.457300 0.315900
vt 0.784398 0.661429
vt 0.699700 0.470690
vt 0.788600 0.472700
vt 0.694950 0.710860
vt 0.775374 0.876358
vt 0.696800 0.874400
vt 0.524400 0.276400
vt 0.525900 0.332000
vt 0.500000 0.281300
vt 0.493200 0.460900
vt 0.522500 0.412100
vt 0.517100 0.467800
vt 0.942900 0.988900
vt 0.962696 0.837045
vt 0.963400 0.991200
vt 0.942400 0.836045
vt 0.961900 0.507292
vt 0.941900 0.639200
vt 0.941400 0.507800
vt 0.884300 0.507794
vt 0.885300 0.837027
vt 0.885700 0.989100
vt -0.705246 0.833767
vt -0.659700 0.960700
vt -0.648896 0.961070
vt -0.700700 0.958800
vt -0.978994 0.989061
vt -0.990200 0.727500
vt -0.710000 0.542700
vt -0.989700 0.518600
vt -0.654435 0.737807
vt -0.658200 0.544200
vt 0.405238 0.400513
vt 0.402800 0.465800
vt 0.367700 0.476600
vt 0.368285 0.388693
vt 0.382100 0.364300
vt 0.394240 0.025565
vt 0.371244 0.024699
vt 0.412100 0.021500
vt 0.414300 0.459500
vt 0.415500 0.404300
vt 0.419700 0.034700
vt 0.988299 0.988054
vt 0.992200 0.721200
vt 0.991700 0.507600
s 1
usemtl mag_col
f 69/53/126 66/54/127 65/55/128
f 69/53/126 70/56/129 66/54/127
f 70/56/129 71/57/130 66/54/127
f 70/56/129 72/58/131 71/57/130
f 72/58/131 73/59/132 71/57/130
f 72/58/131 74/60/133 73/59/132
f 74/60/133 68/61/134 73/59/132
f 74/60/133 67/62/135 68/61/134
f 74/60/133 75/63/136 67/62/135
f 76/64/137 67/62/135 75/63/136
f 67/62/135 76/64/137 77/65/138
f 77/65/138 76/64/137 78/66/139
f 78/66/139 76/64/137 79/67/140
f 79/67/140 76/64/137 80/68/141
f 79/67/140 80/68/141 81/69/142
f 81/69/142 80/68/141 65/55/128
f 80/68/141 82/70/143 65/55/128
f 80/68/141 75/63/136 82/70/143
f 76/64/137 75/63/136 80/68/141
f 65/55/128 82/70/143 69/53/126
f 69/53/126 82/70/143 70/56/129
f 70/56/129 82/70/143 72/58/131
f 82/70/143 75/63/136 72/58/131
f 72/58/131 75/63/136 74/60/133
f 83/71/144 84/72/145 85/73/146
f 83/71/144 86/74/147 84/72/145
f 83/71/144 87/75/148 86/74/147
f 83/71/144 88/76/149 87/75/148
f 90/77/150 91/78/151 89/79/152
f 90/77/150 92/80/153 91/78/151
f 92/80/153 84/81/154 91/78/151
f 92/80/153 93/82/155 84/81/154
f 94/83/156 78/84/157 79/85/158
f 94/83/156 77/86/159 78/84/157
f 94/83/156 88/87/149 77/86/159
f 97/88/160 95/89/161 96/90/162
f 97/88/160 81/91/163 95/89/161
f 97/88/160 79/85/158 81/91/163
f 94/83/156 79/85/158 97/88/160
f 116/92/164 94/83/156 97/88/160
f 116/92/164 88/87/149 94/83/156
f 116/92/164 87/93/148 88/87/149
f 116/92/164 97/88/160 96/90/162
f 67/94/165 98/95/166 68/96/167
f 68/96/167 98/95/166 99/97/168
f 83/71/169 99/97/168 98/95/166
f 67/94/165 83/71/169 98/95/166
f 77/98/170 83/71/169 67/94/165
f 88/76/171 83/71/169 77/98/170
f 83/71/169 85/73/172 99/97/168
f 100/99/173 103/100/174 101/101/175
f 100/99/173 102/102/176 103/100/174
f 100/99/173 104/103/177 102/102/176
f 100/99/173 107/104/178 104/103/177
f 105/105/179 107/104/178 100/99/173
f 105/105/179 100/99/173 96/106/180
f 100/99/173 101/101/175 96/106/180
f 104/103/177 106/107/181 102/102/176
f 108/108/182 84/109/145 93/110/183
f 84/109/145 108/108/182 85/111/146
f 108/108/182 109/112/184 85/111/146
f 108/108/182 110/113/185 109/112/184
f 108/108/182 111/114/186 110/113/185
f 110/113/185 111/114/186 112/115/187
f 112/115/187 111/114/186 107/116/178
f 107/116/178 111/114/186 113/117/188
f 115/118/189 103/119/190 114/120/191
f 115/118/189 101/121/175 103/119/190
f 116/122/192 101/121/175 115/118/189
f 96/123/180 101/121/175 116/122/192
f 66/124/193 71/125/194 128/126/195
f 85/111/196 109/112/197 99/127/168
f 99/127/168 109/112/197 73/128/198
f 73/128/198 109/112/197 71/125/194
f 109/112/197 110/113/199 71/125/194
f 71/125/194 110/113/199 128/126/195
f 128/126/195 110/113/199 112/115/200
f 99/127/168 73/128/198 68/129/167
f 111/130/201 118/131/202 113/132/203
f 111/130/201 117/133/204 118/131/202
f 117/133/204 120/134/205 118/131/202
f 117/133/204 119/135/206 120/134/205
f 119/135/206 121/136/207 120/134/205
f 122/137/208 123/138/209 90/77/210
f 90/77/210 123/138/209 92/80/211
f 92/80/211 123/138/209 108/139/212
f 92/80/211 108/139/212 93/82/213
f 124/140/214 87/141/148 116/142/164
f 124/140/214 86/143/147 87/141/148
f 124/140/214 84/144/145 86/143/147
f 124/140/214 91/145/215 84/144/145
f 124/140/214 125/146/216 91/145/215
f 125/146/216 89/147/217 91/145/215
f 115/148/218 124/140/214 116/142/164
f 115/148/218 125/146/216 124/140/214
f 115/148/218 114/149/219 125/146/216
f 126/150/220 95/151/221 81/152/222
f 126/150/220 81/152/222 65/153/223
f 127/154/224 126/150/220 65/153/223
f 128/155/195 126/150/220 127/154/224
f 127/154/224 66/156/193 128/155/195
f 127/154/224 65/153/223 66/156/193
f 112/157/225 126/150/220 128/155/195
f 95/151/161 126/150/226 96/158/162
f 96/158/162 126/150/226 105/159/179
f 105/159/179 126/150/226 107/160/178
f 107/160/178 126/150/226 112/157/187
f 123/138/227 111/130/228 108/139/229
f 123/138/227 117/133/230 111/130/228
f 119/135/231 117/133/230 123/138/227
f 119/135/231 123/138/227 122/137/232
f 119/135/231 122/137/232 121/136/233
f 113/132/234 118/131/235 107/161/236
f 118/131/235 104/162/237 107/161/236
f 118/131/235 120/134/238 104/162/237
f 120/134/238 106/163/239 104/162/237
